<svg xmlns="http://www.w3.org/2000/svg" xmlns:xlink="http://www.w3.org/1999/xlink" version="1.1" x="0px" y="0px" viewBox="0 0 100 125" style="enable-background:new 0 0 100 100;" xml:space="preserve"><g><path style="" d="M58.531,16.191l-6.652,1.773c-0.094-0.066-0.197-0.131-0.3-0.178l-8.988-3.959   c1.914-1.173,4.156-1.858,6.558-1.858C52.873,11.969,56.222,13.611,58.531,16.191z" fill="none"/><path style="" d="M63.306,89.691H29.492l0.188-3.781c0.084,0.009,0.159,0.028,0.244,0.028h25.191   c0.563,0,1.088-0.253,1.445-0.685c0.357-0.441,0.497-1.004,0.394-1.557l-0.497-2.449h6.183c0.075,0,0.15-0.009,0.225-0.009   l0.375,8.041C63.24,89.419,63.269,89.56,63.306,89.691z" fill="none"/><path style="" d="M46.137,19.484l-9.326,2.477c0.432-2.027,1.351-3.884,2.627-5.423L46.137,19.484z" fill="none"/><polygon style="" points="52.826,82.185 32.185,82.185 38.79,46.533 45.686,46.533  " fill="none"/><path style="" d="M34.972,46.533l-6.127,33.035c-0.244-0.122-0.525-0.197-0.816-0.197h-3.65l0.751-23.615   c0-5.17,4.26-9.223,9.701-9.223H34.972z" fill="none"/><path style="" d="M61.749,24.578c0,6.943-5.658,12.6-12.6,12.6c-6.511,0-11.878-4.944-12.544-11.277l24.075-6.399   C61.364,21.06,61.749,22.768,61.749,24.578z" fill="none"/><path style="" d="M66.909,89.691c0.056-0.188,0.084-0.385,0.075-0.582l-0.432-9.485c0.919-0.91,1.52-2.12,1.52-3.462   v-5.817c0-1.623-0.863-3.04-2.13-3.959l-0.441-9.589c-0.047-1.032-0.948-1.839-1.961-1.792c-1.032,0.047-1.839,0.929-1.792,1.961   l0.385,8.331h-8.866l-3.753-18.765h15.115c5.254,0,9.701,4.616,9.701,10.18l1.623,32.979H66.909z" fill="none"/><path d="M78.083,56.619c0-7.506-6.164-13.839-13.454-13.839H34.831c-7.543,0-13.454,5.695-13.454,12.91L20.57,81.191   c-0.019,0.507,0.178,0.995,0.525,1.36c0.357,0.366,0.844,0.572,1.351,0.572h3.612l-0.413,8.35   c-0.028,0.516,0.159,1.013,0.516,1.389c0.347,0.375,0.844,0.582,1.36,0.582h50.401c0.516,0,1.004-0.206,1.36-0.582   c0.357-0.375,0.535-0.873,0.516-1.389L78.083,56.619z M45.686,46.533l7.14,35.653H32.185l6.605-35.653H45.686z M28.029,79.371   h-3.65l0.751-23.615c0-5.17,4.26-9.223,9.701-9.223h0.141l-6.127,33.035C28.601,79.446,28.32,79.371,28.029,79.371z M29.492,89.691   l0.188-3.781c0.084,0.009,0.159,0.028,0.244,0.028h25.191c0.563,0,1.088-0.253,1.445-0.685c0.357-0.441,0.497-1.004,0.394-1.557   l-0.497-2.449h6.183c0.075,0,0.15-0.009,0.225-0.009l0.375,8.041c0,0.141,0.028,0.281,0.066,0.413H29.492z M64.319,76.162   c0,0.732-0.882,1.295-1.623,1.323c-0.019,0-0.038,0.009-0.056,0.009h-6.933l-1.689-8.444h8.622c0.751,0,1.679,0.535,1.679,1.295   V76.162z M66.909,89.691c0.056-0.188,0.084-0.385,0.075-0.582l-0.432-9.485c0.919-0.91,1.52-2.12,1.52-3.462v-5.817   c0-1.623-0.863-3.04-2.13-3.959l-0.441-9.589c-0.047-1.032-0.948-1.839-1.961-1.792c-1.032,0.047-1.839,0.929-1.792,1.961   l0.385,8.331h-8.866l-3.753-18.765h15.115c5.254,0,9.701,4.616,9.701,10.18l1.623,32.979H66.909z"/><path d="M49.148,8.216c-9.026,0-16.363,7.337-16.363,16.363c0,9.016,7.337,16.353,16.363,16.353   c9.016,0,16.353-7.337,16.353-16.353C65.502,15.553,58.165,8.216,49.148,8.216z M49.148,11.969c3.725,0,7.074,1.642,9.382,4.222   l-6.652,1.773c-0.094-0.066-0.197-0.131-0.3-0.178l-8.988-3.959C44.504,12.654,46.746,11.969,49.148,11.969z M39.438,16.538   l6.699,2.946l-9.326,2.477C37.242,19.934,38.162,18.077,39.438,16.538z M49.148,37.179c-6.511,0-11.878-4.944-12.544-11.277   l24.075-6.399c0.685,1.557,1.07,3.265,1.07,5.076C61.749,31.521,56.091,37.179,49.148,37.179z"/></g></svg>
